<svg xmlns="http://www.w3.org/2000/svg"
 xmlns:xlink="http://www.w3.org/1999/xlink"
 width="30px" height="26px"  viewBox="0 0 30 26">
<path fill-rule="evenodd"  fill="#ffffff"
 d="M18.703125,11.654381 C18.703125,11.654381 17.72229,17.35608 16.67517,18.594322 C15.628174,19.832558 13.782837,19.981339 12.553589,18.926727 C11.324097,17.872322 11.176392,16.014038 12.223267,14.775803 C13.270264,13.537582 18.703125,11.654381 18.703125,11.654381 ZM24.900269,24.163628 C24.900269,24.163628 4.8044434,24.163628 4.8044434,24.163628 C4.4940186,24.163628 4.201172,24.01876 4.0114746,23.770554 C2.3105469,21.54805 1.3352051,18.564796 1.3352051,15.586151 C1.3352051,8.037712 7.399048,1.8968201 14.852295,1.8968201 C22.306152,1.8968201 28.369385,8.026169 28.369385,15.5605545 C28.369385,18.556023 27.393555,21.54898 25.693237,23.770554 C25.50354,24.01876 25.211182,24.163628 24.900269,24.163628 ZM5.3125,22.146873 C5.3125,22.146873 24.3927,22.146873 24.3927,22.146873 C25.6521,20.316963 26.366943,17.945686 26.366943,15.5605545 C26.366943,9.138939 21.201172,3.913559 14.852295,3.913559 C8.503052,3.913559 3.3378906,9.149773 3.3378906,15.586151 C3.3378906,17.95559 4.0531006,20.316963 5.3125,22.146873 ZM6.9155273,15.800682 C6.362549,15.800682 5.9141846,15.349716 5.9141846,14.792648 C5.9141846,9.7831955 9.923706,5.707947 14.852295,5.707947 C19.780396,5.707947 23.790527,9.770966 23.790527,14.764969 C23.790527,15.322029 23.342651,15.773224 22.789185,15.773224 C22.235718,15.773224 21.787964,15.322029 21.787964,14.764969 C21.787964,10.883026 18.676514,7.7246857 14.852295,7.7246857 C11.028198,7.7246857 7.916748,10.895943 7.916748,14.792648 C7.916748,15.349716 7.468506,15.800682 6.9155273,15.800682 Z"/>
</svg>