<?xml-stylesheet type="text/css" href="svgstyle.css"?>
<svg class="item-1-svg" xmlns="http://www.w3.org/2000/svg"
 xmlns:xlink="http://www.w3.org/1999/xlink"
 width="26px" height="33px"  viewBox="0 0 26 33">
<path d="M19.266388,31.97535 C19.266388,31.97535 6.7353516,31.97535 6.7353516,31.97535 C4.104431,31.97535 1.9637451,29.750763 1.9637451,27.016869 C1.9637451,27.016869 1.9637451,6.9439697 1.9637451,6.9439697 C1.9637451,4.209831 4.104431,1.9857101 6.7353516,1.9857101 C6.7353516,1.9857101 19.266388,1.9857101 19.266388,1.9857101 C21.897278,1.9857101 24.038086,4.209831 24.038086,6.9439697 C24.038086,6.9439697 24.038086,27.016869 24.038086,27.016869 C24.038086,29.750763 21.897278,31.97535 19.266388,31.97535 ZM6.7353516,3.9960098 C5.171051,3.9960098 3.8984985,5.318428 3.8984985,6.9439697 C3.8984985,6.9439697 3.8984985,27.016869 3.8984985,27.016869 C3.8984985,28.642632 5.171051,29.965057 6.7353516,29.965057 C6.7353516,29.965057 19.266388,29.965057 19.266388,29.965057 C20.83078,29.965057 22.103302,28.642632 22.103302,27.016869 C22.103302,27.016869 22.103302,6.9439697 22.103302,6.9439697 C22.103302,5.318428 20.83078,3.9960098 19.266388,3.9960098 C19.266388,3.9960098 6.7353516,3.9960098 6.7353516,3.9960098 ZM13.001038,28.818405 C12.467773,28.818405 12.033752,28.367676 12.033752,27.812904 C12.033752,27.25837 12.467773,26.807884 13.001038,26.807884 C13.534393,26.807884 13.968536,27.25837 13.968536,27.812904 C13.968536,28.367676 13.534393,28.818405 13.001038,28.818405 ZM13.968536,7.430908 C13.968536,7.430908 12.033752,7.430908 12.033752,7.430908 C11.499573,7.430908 11.066376,6.9811096 11.066376,6.425644 C11.066376,5.8699646 11.499573,5.4203873 12.033752,5.4203873 C12.033752,5.4203873 13.968536,5.4203873 13.968536,5.4203873 C14.503174,5.4203873 14.935822,5.8699646 14.935822,6.425644 C14.935822,6.9811096 14.503174,7.430908 13.968536,7.430908 Z"/>
</svg>