<svg xmlns="http://www.w3.org/2000/svg"
 xmlns:xlink="http://www.w3.org/1999/xlink"
 width="23px" height="23px"  viewBox="0 0 23 23">
<path fill-rule="evenodd"  fill="#b7bacd"
 d="M21.946167,9.765152 C21.946167,9.765152 21.970093,9.770752 21.970093,9.770752 C21.970093,9.770752 19.470032,21.020721 19.470032,21.020721 C19.470032,21.020721 19.446228,21.014832 19.446228,21.014832 C19.321167,21.573746 18.845947,21.999344 18.249939,21.999344 C18.249939,21.999344 5.749817,21.999344 5.749817,21.999344 C5.1538086,21.999344 4.67865,21.573746 4.553528,21.014832 C4.553528,21.014832 4.529663,21.020721 4.529663,21.020721 C4.529663,21.020721 2.0297241,9.770752 2.0297241,9.770752 C2.0297241,9.770752 2.053711,9.765152 2.053711,9.765152 C2.0338135,9.6772 1.9998779,9.593796 1.9998779,9.499527 C1.9998779,8.809021 2.5595703,8.249542 3.249817,8.249542 C3.249817,8.249542 5.749817,8.249542 5.749817,8.249542 C5.749817,4.7977295 8.548096,1.9992218 11.999878,1.9992218 C15.45166,1.9992218 18.249939,4.7977295 18.249939,8.249542 C18.249939,8.249542 20.749939,8.249542 20.749939,8.249542 C21.440247,8.249542 21.999817,8.809021 21.999817,9.499527 C21.999817,9.593796 21.966003,9.6772 21.946167,9.765152 ZM11.999878,4.499466 C9.928833,4.499466 8.249878,6.1784363 8.249878,8.249542 C8.249878,8.249542 15.749939,8.249542 15.749939,8.249542 C15.749939,6.1784363 14.070923,4.499466 11.999878,4.499466 ZM16.999756,13.249603 C16.30951,13.249603 15.749939,12.689865 15.749939,11.999466 C15.749939,11.999466 15.749939,10.749527 15.749939,10.749527 C15.749939,10.749527 8.249878,10.749527 8.249878,10.749527 C8.249878,10.749527 8.249878,11.999466 8.249878,11.999466 C8.249878,12.689865 7.6903076,13.249603 6.999817,13.249603 C6.3095703,13.249603 5.749817,12.689865 5.749817,11.999466 C5.749817,11.999466 5.749817,10.749527 5.749817,10.749527 C5.749817,10.749527 4.8081665,10.749527 4.8081665,10.749527 C4.8081665,10.749527 6.7525024,19.499207 6.7525024,19.499207 C6.7525024,19.499207 17.247131,19.499207 17.247131,19.499207 C17.247131,19.499207 19.191528,10.749527 19.191528,10.749527 C19.191528,10.749527 18.249939,10.749527 18.249939,10.749527 C18.249939,10.749527 18.249939,11.999466 18.249939,11.999466 C18.249939,12.689865 17.690247,13.249603 16.999756,13.249603 Z"/>
</svg>