<svg xmlns="http://www.w3.org/2000/svg"
 xmlns:xlink="http://www.w3.org/1999/xlink"
 width="26px" height="26px"  viewBox="0 0 26 26">
<path fill-rule="evenodd"  fill="#ffffff"
 d="M21.39972,19.999207 C21.39972,19.999207 17.779633,19.999207 17.779633,19.999207 C17.779633,19.999207 13.989685,23.78917 13.989685,23.78917 C13.989685,23.78917 13.989685,23.78917 13.989685,23.78917 C13.736389,24.042679 13.386353,24.199615 12.999725,24.199615 C12.613159,24.199615 12.263062,24.042679 12.009705,23.78917 C12.009705,23.78917 12.009705,23.78917 12.009705,23.78917 C12.009705,23.78917 8.219757,19.999207 8.219757,19.999207 C8.219757,19.999207 4.5996704,19.999207 4.5996704,19.999207 C3.0533752,19.999207 1.7996521,18.745789 1.7996521,17.199524 C1.7996521,17.199524 1.7996521,4.5990143 1.7996521,4.5990143 C1.7996521,3.0533295 3.0533752,1.7996368 4.5996704,1.7996368 C4.5996704,1.7996368 21.39972,1.7996368 21.39972,1.7996368 C22.946167,1.7996368 24.199768,3.0533295 24.199768,4.5990143 C24.199768,4.5990143 24.199768,17.199524 24.199768,17.199524 C24.199768,18.745789 22.946167,19.999207 21.39972,19.999207 ZM21.39972,5.999069 C21.39972,5.225998 20.77295,4.5990143 19.999634,4.5990143 C19.999634,4.5990143 5.999756,4.5990143 5.999756,4.5990143 C5.2264404,4.5990143 4.5996704,5.225998 4.5996704,5.999069 C4.5996704,5.999069 4.5996704,15.799469 4.5996704,15.799469 C4.5996704,16.572083 5.2264404,17.199524 5.999756,17.199524 C5.999756,17.199524 7.399719,17.199524 7.399719,17.199524 C7.399719,17.199524 8.799683,17.199524 8.799683,17.199524 C9.186249,17.199524 9.536346,17.356049 9.789703,17.609512 C9.789703,17.609512 9.789703,17.609512 9.789703,17.609512 C9.789703,17.609512 12.999725,20.819305 12.999725,20.819305 C12.999725,20.819305 16.209839,17.609512 16.209839,17.609512 C16.209839,17.609512 16.209839,17.609512 16.209839,17.609512 C16.463074,17.356049 16.81305,17.199524 17.199738,17.199524 C17.199738,17.199524 18.59967,17.199524 18.59967,17.199524 C18.59967,17.199524 19.999634,17.199524 19.999634,17.199524 C20.77295,17.199524 21.39972,16.572083 21.39972,15.799469 C21.39972,15.799469 21.39972,5.999069 21.39972,5.999069 ZM17.199738,14.39917 C17.199738,14.39917 8.799683,14.39917 8.799683,14.39917 C8.026489,14.39917 7.399719,13.772751 7.399719,12.99942 C7.399719,12.226349 8.026489,11.59906 8.799683,11.59906 C8.799683,11.59906 17.199738,11.59906 17.199738,11.59906 C17.9729,11.59906 18.59967,12.226349 18.59967,12.99942 C18.59967,13.772751 17.9729,14.39917 17.199738,14.39917 ZM17.199738,10.19902 C17.199738,10.19902 8.799683,10.19902 8.799683,10.19902 C8.026489,10.19902 7.399719,9.572601 7.399719,8.799423 C7.399719,8.026398 8.026489,7.3993835 8.799683,7.3993835 C8.799683,7.3993835 17.199738,7.3993835 17.199738,7.3993835 C17.9729,7.3993835 18.59967,8.026398 18.59967,8.799423 C18.59967,9.572601 17.9729,10.19902 17.199738,10.19902 Z"/>
</svg>