<svg xmlns="http://www.w3.org/2000/svg"
 xmlns:xlink="http://www.w3.org/1999/xlink"
 width="21px" height="25px"  viewBox="0 0 21 25">
<path fill-rule="evenodd"  fill="#b7bacd"
 d="M19.992737,13.3078 C19.992737,15.985764 17.867554,18.156525 15.246216,18.156525 C13.6922,18.156525 12.331726,17.382065 11.471802,16.199615 C11.471802,16.199615 11.448914,16.217209 11.448914,16.217209 C11.448914,16.217209 10.499756,14.924164 10.499756,14.924164 C10.499756,14.924164 9.550476,16.217209 9.550476,16.217209 C9.550476,16.217209 9.53717,16.207306 9.53717,16.207306 C8.671204,17.384216 7.305847,18.156525 5.753296,18.156525 C3.131775,18.156525 1.006897,15.985764 1.006897,13.3078 C1.006897,12.215622 1.37323,11.21843 1.9693604,10.407623 C1.9693604,10.407623 1.9560547,10.39772 1.9560547,10.39772 C1.9560547,10.39772 8.917725,1.9920349 10.499756,1.9920349 C12.082031,1.9920349 19.043335,10.39772 19.043335,10.39772 C19.043335,10.39772 19.030212,10.407623 19.030212,10.407623 C19.626465,11.21843 19.992737,12.215622 19.992737,13.3078 ZM8.917725,19.7733 C8.917725,19.7733 8.917725,18.156525 8.917725,18.156525 C8.917725,17.264648 9.6258545,16.540222 10.499756,16.540222 C11.373535,16.540222 12.082031,17.264648 12.082031,18.156525 C12.082031,18.156525 12.082031,19.7733 12.082031,19.7733 C12.955627,19.7733 13.664001,20.496704 13.664001,21.390228 C13.664001,22.282272 12.955627,23.006546 12.082031,23.006546 C12.082031,23.006546 8.917725,23.006546 8.917725,23.006546 C8.043884,23.006546 7.3355713,22.282272 7.3355713,21.390228 C7.3355713,20.496704 8.043884,19.7733 8.917725,19.7733 Z"/>
</svg>